<svg width="223" height="26" viewBox="0 0 223 26" fill="none" xmlns="http://www.w3.org/2000/svg">
<path d="M4.88477 10.6699H16.3594V5.2998H4.88477V10.6699ZM0.294922 26V0.709961H16.3135C19.3275 0.817057 20.8727 2.33936 20.9492 5.27686V9.13232C20.888 10.8612 20.0312 12.1463 18.3789 12.9878C20.0312 13.8293 20.888 15.1068 20.9492 16.8203V21.4102C20.8727 24.3171 19.3657 25.847 16.4282 26H0.294922ZM16.3594 21.4102V15.2598H4.88477V21.4102H16.3594ZM30.1289 0.709961V11.1289H41.6035V0.709961H46.1934V26H41.6035V15.7188H30.1289V26H25.5391V0.709961H30.1289ZM66.8477 14.4336V5.3457H55.373V14.4336H66.8477ZM55.373 19.0234V26H50.7832V5.3457C50.8903 2.3929 52.4126 0.862956 55.3501 0.755859H66.8477C69.8005 0.832357 71.3304 2.36995 71.4375 5.36865V26H66.8477V19.0234H55.373ZM76.0273 0.709961H92.0688C95.0216 0.862956 96.5592 2.38525 96.6816 5.27686V21.4102C96.6051 24.363 95.0752 25.8929 92.0918 26H76.0273V0.709961ZM92.0918 5.2998H80.6172V21.4102H92.0918V5.2998ZM117.336 14.5254V5.2998H105.861V14.5254H117.336ZM105.861 19.1152V26H101.271V0.709961H117.29C120.243 0.847656 121.788 2.3929 121.926 5.3457V14.4795C121.788 17.3864 120.258 18.9316 117.336 19.1152L121.972 26H116.923L112.287 19.1152H105.861ZM142.58 14.4336V5.3457H131.105V14.4336H142.58ZM131.105 19.0234V26H126.516V5.3457C126.623 2.3929 128.145 0.862956 131.083 0.755859H142.58C145.533 0.832357 147.063 2.36995 147.17 5.36865V26H142.58V19.0234H131.105ZM167.824 14.5254V5.2998H156.35V14.5254H167.824ZM156.35 19.1152V26H151.76V0.709961H167.824C170.792 0.832357 172.322 2.36995 172.414 5.32275V14.5483C172.292 17.4705 170.762 18.9928 167.824 19.1152H156.35ZM193.068 21.4102V0.709961H197.658V21.3643C197.582 24.3171 196.006 25.8623 192.931 26H181.64C178.672 25.847 177.126 24.3094 177.004 21.3872V0.709961H181.594V21.4102H193.068ZM218.312 14.5254V5.2998H206.838V14.5254H218.312ZM206.838 19.1152V26H202.248V0.709961H218.267C221.219 0.847656 222.765 2.3929 222.902 5.3457V14.4795C222.765 17.3864 221.235 18.9316 218.312 19.1152L222.948 26H217.899L213.264 19.1152H206.838Z" fill="#055D59"/>
</svg>
