<svg width="66" height="66" viewBox="0 0 66 66" fill="none" xmlns="http://www.w3.org/2000/svg">
<circle cx="33" cy="33" r="33" fill="#D9D9D9"/>
<rect x="23.3004" y="6" width="18.7387" height="5.03267" fill="#055D59"/>
<path d="M47.7677 33.3584C45.0265 29.1182 42.1996 17.9214 41.1289 12.853H24.4247C24.2105 18.2497 20.0523 28.7719 18 33.3584C30.9029 47.3857 30.1814 55.7683 30.9488 61.2293C32.1955 61.4511 34.8571 61.3578 34.8571 61.2293C34.1611 45.5424 47.7142 33.3584 47.7677 33.3584Z" fill="#055D59"/>
<circle cx="32.8609" cy="63.4474" r="1.55263" fill="#055D59"/>
<rect x="32.25" y="33.75" width="1.71325" height="27.6261" fill="white"/>
<path fill-rule="evenodd" clip-rule="evenodd" d="M35.53 29.4571C36.0316 28.8118 36.3818 28.0165 36.5804 27.0713L38.062 30.2475C37.1167 32.0211 35.6289 33.7634 33.5983 35.4745L31.1749 34.4639C32.2719 33.7109 33.4305 32.4935 34.6506 30.8119L32.334 30.334C31.7535 31.182 30.9527 31.9963 29.9315 32.777L27.5511 31.8251C28.5263 31.1708 29.3271 30.4352 29.9536 29.6182C28.7062 29.1715 27.8996 28.556 27.5337 27.7716C27.1764 26.9832 27.1544 26.2273 27.4677 25.504C27.7896 24.7766 28.2997 24.25 28.9978 23.9244C29.7046 23.5947 30.501 23.5695 31.387 23.8489C32.269 24.1197 32.9759 24.724 33.5078 25.6619C34.0397 26.5997 33.9502 27.7015 33.2392 28.9672L35.53 29.4571ZM30.0479 27.5592C30.2248 27.9384 30.5025 28.2077 30.8812 28.3669C31.299 27.7102 31.5436 27.0871 31.615 26.4976C31.6949 25.904 31.5689 25.5325 31.2368 25.3831C30.9133 25.2296 30.5901 25.4591 30.267 26.0716C29.94 26.6754 29.8669 27.1713 30.0479 27.5592Z" fill="white"/>
<path d="M34.7075 25.5101L37.1789 24.3573L40.7416 31.9951L38.2702 33.1479L34.7075 25.5101ZM33.412 22.7327L35.8834 21.5799L36.8551 23.6629L34.3836 24.8157L33.412 22.7327Z" fill="white"/>
</svg>
