<svg width="115" height="23" viewBox="0 0 115 23" fill="none" xmlns="http://www.w3.org/2000/svg">
<path d="M16.0176 0.938477V4.94238H4.00586V10.0273H14.0156C16.5648 10.1475 17.8994 11.4688 18.0195 13.9912V18.936C17.8994 21.4985 16.5514 22.8532 13.9756 23H0.00195312V18.9961H14.0156V14.0312H4.00586C1.44336 13.8444 0.108724 12.5031 0.00195312 10.0073V4.92236C0.108724 2.38656 1.44336 1.05859 4.00586 0.938477H16.0176ZM36.0371 12.9902V4.94238H26.0273V12.9902H36.0371ZM26.0273 16.9941V23H22.0234V0.938477H35.9971C38.5729 1.05859 39.9209 2.40658 40.041 4.98242V12.9502C39.9209 15.486 38.5863 16.834 36.0371 16.9941L40.0811 23H35.6768L31.6328 16.9941H26.0273ZM44.0449 1.01855H48.0488V23H44.0449V1.01855ZM66.0664 18.9961V4.94238H56.0566V18.9961H66.0664ZM52.0527 4.92236C52.1595 2.35986 53.4941 1.0319 56.0566 0.938477H66.0464C68.5822 1.0319 69.9235 2.35986 70.0703 4.92236V18.9961C70.0036 21.5853 68.6689 22.9199 66.0664 23H56.0566C53.4408 22.9199 52.1061 21.5853 52.0527 18.9961V4.92236ZM74.0742 0.978516H78.0781V10.9883H88.0879V0.978516H92.0918V11.0283C91.9984 13.5508 90.6571 14.8721 88.0679 14.9922H85.085V23H81.1011V14.9922H78.1182C75.5023 14.8721 74.1543 13.5441 74.0742 11.0083V0.978516ZM96.0957 4.9624C96.1891 2.37321 97.5238 1.0319 100.1 0.938477H110.149C112.725 1.0319 114.047 2.37321 114.113 4.9624V6.94434H110.109V4.94238H100.1V18.9961H110.109V14.0312H105.145V10.0273H114.113V18.9961C113.98 21.5186 112.659 22.8532 110.149 23H100.1C97.5505 22.8665 96.2158 21.5386 96.0957 19.0161V4.9624Z" fill="#055D59"/>
</svg>
