<svg width="115" height="23" viewBox="0 0 115 23" fill="none" xmlns="http://www.w3.org/2000/svg">
<path d="M16.0176 0.938477V4.94238H4.00586V10.0273H14.0156C16.5648 10.1475 17.8994 11.4688 18.0195 13.9912V18.936C17.8994 21.4985 16.5514 22.8532 13.9756 23H0.00195312V18.9961H14.0156V14.0312H4.00586C1.44336 13.8444 0.108724 12.5031 0.00195312 10.0073V4.92236C0.108724 2.38656 1.44336 1.05859 4.00586 0.938477H16.0176ZM36.0371 12.9902V4.94238H26.0273V12.9902H36.0371ZM26.0273 16.9941V23H22.0234V0.938477H35.9971C38.5729 1.05859 39.9209 2.40658 40.041 4.98242V12.9502C39.9209 15.486 38.5863 16.834 36.0371 16.9941L40.0811 23H35.6768L31.6328 16.9941H26.0273ZM44.0449 1.01855H48.0488V23H44.0449V1.01855ZM52.0527 0.978516H56.0566V10.9883H66.0664V0.978516H70.0703V11.0283C69.9769 13.5508 68.6356 14.8721 66.0464 14.9922H63.0635V23H59.0796V14.9922H56.0967C53.4808 14.8721 52.1328 13.5441 52.0527 11.0083V0.978516ZM88.0879 18.9961V4.94238H78.0781V18.9961H88.0879ZM74.0742 4.92236C74.181 2.35986 75.5156 1.0319 78.0781 0.938477H88.0679C90.6037 1.0319 91.945 2.35986 92.0918 4.92236V18.9961C92.0251 21.5853 90.6904 22.9199 88.0879 23H78.0781C75.4622 22.9199 74.1276 21.5853 74.0742 18.9961V4.92236ZM96.0957 4.9624C96.1891 2.37321 97.5238 1.0319 100.1 0.938477H110.149C112.725 1.0319 114.047 2.37321 114.113 4.9624V6.94434H110.109V4.94238H100.1V18.9961H110.109V14.0312H105.145V10.0273H114.113V18.9961C113.98 21.5186 112.659 22.8532 110.149 23H100.1C97.5505 22.8665 96.2158 21.5386 96.0957 19.0161V4.9624Z" fill="#055D59"/>
</svg>
